ply
format ascii 1.0
comment Created by Blender 2.70 (sub 0) - www.blender.org, source file: 'earrings.blend'
element vertex 719
property float x
property float y
property float z
property float nx
property float ny
property float nz
element face 284
property list uchar uint vertex_indices
end_header
0.579702 0.608019 0.000000 -0.000000 0.000000 -1.000000
0.879553 0.732902 0.000000 -0.000000 0.000000 -1.000000
0.646089 0.475815 0.000000 -0.000000 0.000000 -1.000000
0.879553 0.732902 0.000000 0.000000 0.000000 1.000000
0.932466 0.481674 0.000000 0.000000 0.000000 1.000000
0.970340 0.301850 0.000000 0.000000 0.000000 1.000000
0.970340 0.301850 0.000000 0.000000 0.000000 -1.000000
0.707439 0.353640 0.000000 0.000000 0.000000 -1.000000
0.579702 0.608019 0.000000 -0.893658 -0.448749 -0.000000
0.646089 0.475815 0.000000 -0.893658 -0.448749 -0.000000
0.646437 0.475122 0.638410 -0.893658 -0.448749 -0.000000
0.579702 0.608019 0.638410 -0.893658 -0.448749 -0.000000
0.731432 1.000000 0.000000 0.000000 0.000000 -1.000000
0.638847 1.000000 0.000000 0.000000 0.000000 -1.000000
0.405459 0.791041 0.000000 0.000000 0.000000 -1.000000
0.932466 0.481674 0.000000 0.978532 0.206094 0.000000
0.879553 0.732902 0.000000 0.978532 0.206094 0.000000
0.879553 0.732902 0.638410 0.978532 0.206094 0.000000
0.936818 0.461008 0.638410 0.978532 0.206094 0.000000
0.970340 0.301850 0.000000 0.978532 0.206094 0.000000
0.970340 0.301850 0.633973 0.978532 0.206094 0.000000
0.772157 0.031615 0.000000 -0.000000 -0.000000 -1.000000
0.741422 0.184548 0.000000 -0.000000 -0.000000 -1.000000
0.959751 0.027769 0.000000 -0.000000 -0.000000 -1.000000
0.965133 0.167069 0.000000 0.000000 0.000000 -1.000000
0.646089 0.475815 0.000000 -0.893657 -0.448750 -0.000000
0.707439 0.353640 0.000000 -0.893657 -0.448750 -0.000000
0.707439 0.353640 0.147152 -0.893657 -0.448750 -0.000000
0.405459 0.791041 0.000000 -0.724262 -0.689525 0.000000
0.579702 0.608019 0.000000 -0.724262 -0.689525 0.000000
0.579702 0.608019 0.638410 -0.724262 -0.689525 0.000000
0.405459 0.791041 0.638410 -0.724262 -0.689525 0.000000
0.707439 0.353640 0.633973 -0.893657 -0.448750 -0.000000
0.646437 0.475122 0.638410 -0.893657 -0.448750 -0.000000
0.579702 0.608019 0.638410 0.000000 0.000000 1.000000
0.646437 0.475122 0.638410 0.000000 0.000000 1.000000
0.936818 0.461008 0.638410 0.000000 0.000000 1.000000
0.879553 0.732902 0.638410 0.000000 0.000000 1.000000
0.700714 1.055392 0.000000 -0.000000 0.000000 -1.000000
0.879553 0.732902 0.000000 0.874528 0.484976 0.000000
0.731432 1.000000 0.000000 0.874528 0.484976 0.000000
0.879553 0.732902 0.638410 0.874528 0.484976 0.000000
0.731432 1.000000 0.000000 0.874527 0.484976 0.000000
0.700714 1.055392 0.000000 0.874527 0.484976 0.000000
0.700714 1.055392 0.638410 0.874527 0.484976 0.000000
0.879553 0.732902 0.638410 0.874527 0.484976 0.000000
0.201218 0.898994 0.000000 0.000000 0.000000 -1.000000
0.270754 1.000000 0.000000 0.000000 0.000000 -1.000000
0.965133 0.167069 0.000000 0.999255 -0.038602 0.000000
0.970340 0.301850 0.000000 0.999255 -0.038602 0.000000
0.970340 0.301850 0.633973 0.999255 -0.038602 0.000000
0.964396 0.148000 0.600854 0.999255 -0.038602 0.000000
0.970340 0.301850 0.633973 -0.003922 -0.032927 0.999450
0.936818 0.461008 0.638410 -0.003922 -0.032927 0.999450
0.646437 0.475122 0.638410 -0.003922 -0.032927 0.999450
0.707439 0.353640 0.633973 -0.003922 -0.032927 0.999450
0.948824 -0.255083 0.000000 -0.000000 -0.000000 -1.000000
0.741422 0.184548 0.000000 -0.980397 -0.197034 -0.000000
0.772157 0.031615 0.000000 -0.980397 -0.197034 -0.000000
0.772157 0.031615 0.108309 -0.980397 -0.197034 -0.000000
0.707439 0.353640 0.000000 -0.980397 -0.197033 0.000000
0.741422 0.184548 0.000000 -0.980397 -0.197033 0.000000
0.707439 0.353640 0.147152 -0.980397 -0.197033 0.000000
0.739344 0.194887 0.602063 -0.980397 -0.197034 0.000000
0.707439 0.353640 0.633973 -0.980397 -0.197034 0.000000
0.707439 0.353640 0.633973 -0.980397 -0.197033 0.000000
0.959751 0.027769 0.000000 0.999255 -0.038603 0.000000
0.965133 0.167069 0.000000 0.999255 -0.038603 0.000000
0.964396 0.148000 0.600854 0.999255 -0.038603 0.000000
0.958736 0.001476 0.542828 0.999255 -0.038603 0.000000
0.201218 0.898994 0.000000 -0.467298 -0.884100 0.000000
0.405459 0.791041 0.000000 -0.467298 -0.884100 0.000000
0.405459 0.791041 0.638410 -0.467298 -0.884100 0.000000
0.201218 0.898994 0.638410 -0.467298 -0.884100 0.000000
0.700714 1.055392 0.638410 -0.000000 0.000000 1.000000
0.405459 0.791041 0.638410 -0.000000 0.000000 1.000000
0.456839 1.270302 0.000000 -0.000000 0.000000 -1.000000
0.700714 1.055392 0.000000 0.661149 0.750255 0.000000
0.456839 1.270302 0.000000 0.661149 0.750255 0.000000
0.456839 1.270302 0.638410 0.661149 0.750255 0.000000
0.700714 1.055392 0.638410 0.661149 0.750255 0.000000
0.194843 1.000000 0.000000 0.000000 0.000000 -1.000000
0.964396 0.148000 0.600854 -0.039366 -0.206637 0.977625
0.970340 0.301850 0.633973 -0.039366 -0.206637 0.977625
0.707439 0.353640 0.633973 -0.039366 -0.206637 0.977625
0.739344 0.194887 0.602063 -0.039366 -0.206637 0.977625
0.948824 -0.255083 0.000000 0.999255 -0.038603 -0.000000
0.948824 -0.255083 0.458446 0.999255 -0.038603 -0.000000
0.756194 -0.359653 0.000000 0.000000 -0.000000 -1.000000
0.772157 0.031615 0.537926 -0.980397 -0.197034 0.000000
0.772157 0.031615 0.000000 -0.999169 0.040764 0.000000
0.756194 -0.359653 0.000000 -0.999169 0.040764 0.000000
0.772157 0.031615 0.108309 -0.999169 0.040764 0.000000
0.756194 -0.359653 0.400502 -0.999169 0.040764 0.000000
0.772157 0.031615 0.537926 -0.999169 0.040764 0.000000
0.958736 0.001476 0.542828 -0.077840 -0.371623 0.925115
0.964396 0.148000 0.600854 -0.077840 -0.371623 0.925115
0.739344 0.194887 0.602063 -0.077840 -0.371623 0.925115
0.772157 0.031615 0.537926 -0.077840 -0.371623 0.925115
-0.016510 0.928168 0.000000 -0.132807 -0.991142 0.000000
0.201218 0.898994 0.000000 -0.132807 -0.991142 0.000000
0.201218 0.898994 0.638410 -0.132807 -0.991142 0.000000
-0.016510 0.928168 0.638410 -0.132807 -0.991142 0.000000
0.456839 1.270302 0.638410 0.000000 0.000000 1.000000
0.201218 0.898994 0.638410 0.000000 0.000000 1.000000
0.170946 1.378615 0.000000 -0.000000 0.000000 -1.000000
0.456839 1.270302 0.000000 0.354284 0.935138 0.000000
0.170946 1.378615 0.000000 0.354284 0.935138 0.000000
0.170946 1.378615 0.638410 0.354284 0.935138 0.000000
0.456839 1.270302 0.638410 0.354284 0.935138 0.000000
-0.016510 0.928168 0.000000 0.000000 0.000000 -1.000000
-0.035126 1.000000 0.000000 0.000000 0.000000 -1.000000
0.914284 -0.447346 0.000000 0.984243 -0.176822 0.000000
0.948824 -0.255083 0.000000 0.984243 -0.176822 0.000000
0.948824 -0.255083 0.458446 0.984243 -0.176822 0.000000
0.914284 -0.447346 0.384255 0.984243 -0.176822 0.000000
0.948824 -0.255083 0.458446 -0.074817 -0.308951 0.948131
0.958736 0.001476 0.542828 -0.074817 -0.308951 0.948131
0.772157 0.031615 0.537926 -0.074817 -0.308951 0.948131
0.914284 -0.447346 0.000000 0.000000 0.000000 -1.000000
0.756194 -0.359653 0.000000 -0.995801 0.091549 0.000000
0.736700 -0.571694 0.000000 -0.995801 0.091549 0.000000
0.736700 -0.571694 0.320737 -0.995801 0.091549 0.000000
0.756194 -0.359653 0.400502 -0.995801 0.091549 0.000000
0.948824 -0.255083 0.458446 -0.105824 -0.325676 0.939541
0.772157 0.031615 0.537926 -0.105824 -0.325676 0.939541
0.756194 -0.359653 0.400502 -0.105824 -0.325676 0.939541
-0.231215 0.874853 0.000000 0.241000 -0.970525 0.000000
-0.016510 0.928168 0.000000 0.241000 -0.970525 0.000000
-0.016510 0.928168 0.638410 0.241000 -0.970525 0.000000
-0.231215 0.874853 0.638410 0.241000 -0.970525 0.000000
-0.133948 1.381314 0.638410 0.000000 0.000000 1.000000
-0.016510 0.928168 0.638410 0.000000 0.000000 1.000000
0.170946 1.378615 0.638410 0.000000 0.000000 1.000000
-0.133948 1.381314 0.000000 -0.000000 0.000000 -1.000000
0.170946 1.378615 0.000000 0.008852 0.999961 0.000000
-0.133948 1.381314 0.000000 0.008852 0.999961 0.000000
-0.133948 1.381314 0.638410 0.008852 0.999961 0.000000
0.170946 1.378615 0.638410 0.008852 0.999961 0.000000
-0.231215 0.874853 0.000000 0.000000 0.000000 -1.000000
-0.294205 1.000000 0.000000 0.000000 0.000000 -1.000000
0.885066 -0.558445 0.000000 0.967114 -0.254344 0.000000
0.914284 -0.447346 0.000000 0.967114 -0.254344 0.000000
0.914284 -0.447346 0.384255 0.967114 -0.254344 0.000000
0.885066 -0.558445 0.359038 0.967114 -0.254344 0.000000
0.948824 -0.255083 0.458446 -0.094553 -0.343566 0.934356
0.756194 -0.359653 0.400502 -0.094553 -0.343566 0.934356
0.914284 -0.447346 0.384255 -0.094553 -0.343566 0.934356
0.736700 -0.571694 0.000000 -0.000000 0.000000 -1.000000
0.885066 -0.558445 0.000000 -0.000000 0.000000 -1.000000
0.736700 -0.571694 0.000000 -0.932210 0.361918 0.000000
0.709376 -0.642075 0.000000 -0.932210 0.361918 0.000000
0.709376 -0.642075 0.273480 -0.932210 0.361918 0.000000
0.736700 -0.571694 0.320737 -0.932210 0.361918 0.000000
0.736700 -0.571694 0.320737 -0.137971 -0.287152 0.947896
0.885066 -0.558445 0.359038 -0.137971 -0.287152 0.947896
0.914284 -0.447346 0.384255 -0.137971 -0.287152 0.947896
0.756194 -0.359653 0.400502 -0.137971 -0.287152 0.947896
-0.426386 0.735337 0.000000 0.581536 -0.813521 0.000000
-0.231215 0.874853 0.000000 0.581536 -0.813521 0.000000
-0.231215 0.874853 0.638410 0.581536 -0.813521 0.000000
-0.426386 0.735337 0.638410 0.581536 -0.813521 0.000000
-0.434827 1.279381 0.638410 0.000000 0.000000 1.000000
-0.231215 0.874853 0.638410 0.000000 0.000000 1.000000
-0.434827 1.279381 0.000000 -0.000000 0.000000 -1.000000
-0.133948 1.381314 0.000000 -0.320871 0.947123 0.000000
-0.434827 1.279381 0.000000 -0.320871 0.947123 0.000000
-0.434827 1.279381 0.638410 -0.320871 0.947123 0.000000
-0.133948 1.381314 0.638410 -0.320871 0.947123 0.000000
-0.426386 0.735337 0.000000 0.000000 0.000000 -1.000000
-0.647122 1.000000 0.000000 0.000000 0.000000 -1.000000
0.847312 -0.654859 0.000000 0.931157 -0.364618 0.000000
0.885066 -0.558445 0.000000 0.931157 -0.364618 0.000000
0.885066 -0.558445 0.359038 0.931157 -0.364618 0.000000
0.847312 -0.654859 0.313119 0.931157 -0.364618 0.000000
0.847312 -0.654859 0.000000 0.000000 -0.000000 -1.000000
0.709376 -0.642075 0.000000 0.000000 0.000000 -1.000000
0.709376 -0.642075 0.000000 -0.755152 0.655550 0.000000
0.666624 -0.691323 0.000000 -0.755152 0.655550 0.000000
0.666624 -0.691323 0.228997 -0.755152 0.655550 0.000000
0.709376 -0.642075 0.273480 -0.755152 0.655550 0.000000
0.736700 -0.571694 0.320737 -0.284598 -0.455777 0.843369
0.709376 -0.642075 0.273480 -0.284598 -0.455777 0.843369
0.847312 -0.654859 0.313119 -0.284598 -0.455777 0.843369
0.847312 -0.654859 0.313119 -0.203879 -0.354748 0.912462
0.885066 -0.558445 0.359038 -0.203879 -0.354748 0.912462
0.736700 -0.571694 0.320737 -0.203879 -0.354748 0.912462
-0.585514 0.505909 0.000000 0.821699 -0.569921 0.000000
-0.426386 0.735337 0.000000 0.821699 -0.569921 0.000000
-0.426386 0.735337 0.638410 0.821699 -0.569921 0.000000
-0.585514 0.505909 0.638410 0.821699 -0.569921 0.000000
-0.426386 0.735337 0.638410 0.000000 0.000000 1.000000
-0.708672 1.073798 0.638410 0.000000 0.000000 1.000000
-0.708672 1.073798 0.000000 -0.000000 0.000000 -1.000000
-0.434827 1.279381 0.000000 -0.600371 0.799722 0.000000
-0.708672 1.073798 0.000000 -0.600371 0.799722 0.000000
-0.708672 1.073798 0.638410 -0.600371 0.799722 0.000000
-0.434827 1.279381 0.638410 -0.600371 0.799722 0.000000
-0.762250 1.000000 0.000000 0.000000 0.000000 -1.000000
-0.585514 0.505909 0.000000 0.000000 0.000000 -1.000000
-0.932466 0.765549 0.000000 0.000000 0.000000 -1.000000
0.796609 -0.732672 0.000000 0.837831 -0.545930 0.000000
0.847312 -0.654859 0.000000 0.837831 -0.545930 0.000000
0.847312 -0.654859 0.313119 0.837831 -0.545930 0.000000
0.796609 -0.732672 0.260417 0.837831 -0.545930 0.000000
0.796609 -0.732672 0.000000 -0.000000 -0.000000 -1.000000
0.741751 -0.775029 0.000000 0.000000 0.000000 -1.000000
0.666624 -0.691323 0.000000 0.000000 0.000000 -1.000000
0.666624 -0.691323 0.000000 -0.531680 0.846945 0.000000
0.576276 -0.748040 0.000000 -0.531680 0.846945 0.000000
0.576276 -0.748040 0.143909 -0.531680 0.846945 0.000000
0.666624 -0.691323 0.228997 -0.531680 0.846945 0.000000
0.709376 -0.642075 0.273480 -0.340096 -0.436009 0.833205
0.666624 -0.691323 0.228997 -0.340096 -0.436009 0.833205
0.741751 -0.775029 0.217121 -0.340096 -0.436009 0.833205
0.796609 -0.732672 0.260417 -0.340096 -0.436009 0.833205
0.796609 -0.732672 0.260417 -0.287118 -0.401838 0.869534
0.847312 -0.654859 0.313119 -0.287118 -0.401838 0.869534
0.709376 -0.642075 0.273480 -0.287118 -0.401838 0.869534
-0.692089 0.182860 0.000000 0.949657 -0.313293 0.000000
-0.585514 0.505909 0.000000 0.949657 -0.313293 0.000000
-0.585514 0.505909 0.638410 0.949657 -0.313293 0.000000
-0.692089 0.182860 0.638410 0.949657 -0.313293 0.000000
-0.932466 0.765549 0.638410 0.000000 0.000000 1.000000
-0.585514 0.505909 0.638410 0.000000 0.000000 1.000000
-0.692089 0.182860 0.000000 0.000000 -0.000000 -1.000000
-1.083193 0.355617 0.000000 0.000000 -0.000000 -1.000000
0.741751 -0.775029 0.000000 0.611146 -0.791518 0.000000
0.796609 -0.732672 0.000000 0.611146 -0.791518 0.000000
0.796609 -0.732672 0.260417 0.611146 -0.791518 0.000000
0.741751 -0.775029 0.217121 0.611146 -0.791518 0.000000
0.558425 -0.825399 0.000000 0.000000 -0.000000 -1.000000
0.576276 -0.748040 0.000000 0.000000 -0.000000 -1.000000
0.576276 -0.748040 0.000000 -0.350373 0.936610 0.000000
0.353379 -0.831423 0.003477 -0.350373 0.936610 0.000000
0.353379 -0.831423 0.059735 -0.350373 0.936610 0.000000
0.576276 -0.748040 0.143909 -0.350373 0.936610 0.000000
-0.729599 -0.237522 0.000000 0.996043 -0.088876 0.000000
-0.692089 0.182860 0.000000 0.996043 -0.088876 0.000000
-0.692089 0.182860 0.638410 0.996043 -0.088876 0.000000
-0.729599 -0.237522 0.638410 0.996043 -0.088876 0.000000
-0.692089 0.182860 0.638410 -0.000000 0.000000 1.000000
-1.083193 0.355617 0.638410 -0.000000 0.000000 1.000000
-0.708672 1.073798 0.638410 -0.809219 0.587508 0.000000
-0.708672 1.073798 0.000000 -0.809219 0.587508 0.000000
-0.932466 0.765549 0.638410 -0.809219 0.587508 0.000000
-0.932466 0.765549 0.000000 -0.809219 0.587508 0.000000
-0.729599 -0.237522 0.000000 0.000000 -0.000000 -1.000000
-1.137835 -0.155017 0.000000 0.000000 -0.000000 -1.000000
-0.932466 0.765549 0.000000 -0.938567 0.345098 0.000000
-1.083193 0.355617 0.000000 -0.938567 0.345098 0.000000
-1.083193 0.355617 0.638410 -0.938567 0.345098 0.000000
-0.932466 0.765549 0.638410 -0.938567 0.345098 0.000000
0.558425 -0.825399 0.000000 0.264937 -0.964266 0.000000
0.741751 -0.775029 0.000000 0.264937 -0.964266 0.000000
0.741751 -0.775029 0.217121 0.264937 -0.964266 0.000000
0.558425 -0.825399 0.120542 0.264937 -0.964266 0.000000
0.576276 -0.748040 0.000000 -0.017285 0.011219 -0.999788
0.558425 -0.825399 0.000000 -0.017285 0.011219 -0.999788
0.333931 -0.858637 0.002949 -0.017285 0.011219 -0.999788
0.353379 -0.831423 0.003477 -0.017285 0.011219 -0.999788
0.741751 -0.775029 0.217121 -0.426381 -0.335437 0.840048
0.666624 -0.691323 0.228997 -0.426381 -0.335437 0.840048
0.576276 -0.748040 0.143909 -0.426381 -0.335437 0.840048
0.558425 -0.825399 0.120542 -0.426381 -0.335437 0.840048
-0.729599 -0.237522 0.638410 -0.000000 0.000000 1.000000
-1.137835 -0.155017 0.638410 -0.000000 0.000000 1.000000
-0.944780 -0.803793 0.000000 -0.000000 -0.000000 -1.000000
-1.008898 -0.791111 0.000000 -0.000000 -0.000000 -1.000000
-0.862260 -0.805841 0.000000 -0.000000 -0.000000 -1.000000
-1.073009 -0.766483 0.000000 0.000000 0.000000 -1.000000
-0.684580 -0.725923 0.000000 0.000000 0.000000 -1.000000
-0.703332 -0.766916 0.000000 0.000000 0.000000 -1.000000
-0.766553 -0.790030 0.000000 0.000000 0.000000 -1.000000
-1.083193 0.355617 0.000000 -0.994323 0.106401 0.000000
-1.137835 -0.155017 0.000000 -0.994323 0.106401 0.000000
-1.137835 -0.155017 0.638410 -0.994323 0.106401 0.000000
-1.083193 0.355617 0.638410 -0.994323 0.106401 0.000000
0.333931 -0.858637 0.002949 0.146460 -0.989217 0.000000
0.558425 -0.825399 0.000000 0.146460 -0.989217 0.000000
0.558425 -0.825399 0.120542 0.146460 -0.989217 0.000000
0.333931 -0.858637 0.054290 0.146460 -0.989217 0.000000
0.133067 -0.863558 0.000000 0.012308 0.023792 -0.999641
0.353379 -0.831423 0.003477 0.012308 0.023792 -0.999641
0.144675 -0.869563 0.000000 0.012308 0.023792 -0.999641
0.100904 -0.868249 0.029951 -0.144332 0.989529 0.000000
0.353379 -0.831423 0.059735 -0.144332 0.989529 0.000000
0.100904 -0.868249 0.000000 -0.144332 0.989529 0.000000
0.353379 -0.831423 0.003477 -0.144332 0.989529 0.000000
0.133067 -0.863558 0.000000 -0.144332 0.989529 0.000000
0.353379 -0.831423 0.059735 -0.144332 0.989529 -0.000001
0.133067 -0.863558 0.000000 -0.144332 0.989529 -0.000001
0.100904 -0.868249 0.000000 -0.144332 0.989529 -0.000001
0.333931 -0.858637 0.054290 -0.276143 -0.162503 0.947279
0.558425 -0.825399 0.120542 -0.276143 -0.162503 0.947279
0.576276 -0.748040 0.143909 -0.276143 -0.162503 0.947279
0.353379 -0.831423 0.059735 -0.276143 -0.162503 0.947279
-1.120893 -0.314818 0.638410 0.000000 0.000000 1.000000
-0.722474 -0.314818 0.638410 0.000000 0.000000 1.000000
-0.724485 -0.293010 0.638410 0.000000 0.000000 1.000000
-0.683683 -0.735661 0.554667 -0.243714 0.969691 0.017418
-0.684533 -0.726439 0.029371 -0.243714 0.969691 0.017418
-0.684580 -0.725923 0.000000 -0.243714 0.969691 0.017418
-0.729599 -0.237522 0.000000 0.995779 0.091786 0.000000
-0.729599 -0.237522 0.638410 0.995779 0.091786 0.000000
-0.724485 -0.293010 0.638410 0.995779 0.091786 0.000000
-0.724485 -0.293010 0.638410 0.995778 0.091789 0.000000
-0.722474 -0.314818 0.607765 0.995778 0.091789 0.000000
-0.722474 -0.314818 0.244812 0.995778 0.091789 0.000000
-0.721479 -0.325611 0.244812 0.000000 0.000000 0.000000
-0.721479 -0.325611 0.592600 0.000000 0.000000 0.000000
-0.721479 -0.325611 0.632242 0.000000 0.000000 0.000000
-0.721479 -0.325611 0.632242 0.995779 0.091781 0.000000
-0.721479 -0.325611 0.638410 0.995779 0.091781 0.000000
-0.720647 -0.334645 0.638410 0.995779 0.091781 0.000000
-0.683683 -0.735661 0.554667 0.995779 0.091788 -0.000002
-0.720647 -0.334645 0.638410 0.995779 0.091788 -0.000002
-0.683547 -0.737131 0.638410 0.995779 0.091788 -0.000002
-0.683683 -0.735661 0.554667 0.995779 0.091787 -0.000000
-0.684580 -0.725923 0.000000 0.995779 0.091787 -0.000000
-0.729599 -0.237522 0.000000 0.995779 0.091787 -0.000000
-0.729599 -0.237522 0.000000 0.995778 0.091788 0.000000
-0.724485 -0.293010 0.638410 0.995778 0.091788 0.000000
-0.722474 -0.314818 0.244812 0.995778 0.091788 0.000000
-0.721479 -0.325611 0.244812 0.995779 0.091781 0.000000
-0.729599 -0.237522 0.000000 0.995779 0.091784 -0.000001
-0.722474 -0.314818 0.244812 0.995779 0.091784 -0.000001
-0.721479 -0.325611 0.244812 0.995779 0.091784 -0.000001
-0.721479 -0.325611 0.244812 0.995779 0.091787 0.000000
-0.720647 -0.334645 0.638410 0.995779 0.091787 0.000000
-0.944780 -0.803793 0.000000 -0.024811 -0.999692 0.000000
-0.862260 -0.805841 0.000000 -0.024811 -0.999692 0.000000
-0.862260 -0.805841 0.638410 -0.024811 -0.999692 0.000000
-0.944780 -0.803793 0.638410 -0.024811 -0.999692 0.000000
-1.008898 -0.791111 0.000000 -0.194033 -0.980995 0.000000
-0.944780 -0.803793 0.000000 -0.194033 -0.980995 0.000000
-0.944780 -0.803793 0.638410 -0.194033 -0.980995 0.000000
-1.008898 -0.791111 0.638410 -0.194033 -0.980995 0.000000
-1.073009 -0.766483 0.000000 -0.358597 -0.933492 0.000000
-1.008898 -0.791111 0.000000 -0.358597 -0.933492 0.000000
-1.008898 -0.791111 0.638410 -0.358597 -0.933492 0.000000
-1.073009 -0.766483 0.638410 -0.358597 -0.933492 0.000000
-0.703332 -0.766916 0.000000 0.740684 -0.338822 -0.580161
-0.684580 -0.725923 0.000000 0.740684 -0.338822 -0.580161
-0.691338 -0.753052 0.007216 0.740684 -0.338822 -0.580161
-0.703230 -0.766879 0.029434 -0.617406 -0.786638 0.003142
-0.701361 -0.766196 0.567621 -0.617406 -0.786638 0.003142
-0.703332 -0.766916 0.000000 -0.617406 -0.786638 0.003142
-0.701361 -0.766196 0.567621 0.343370 -0.939200 0.000000
-0.701115 -0.766106 0.638410 0.343370 -0.939200 0.000000
-0.766553 -0.790030 0.638410 0.343370 -0.939200 0.000000
-0.766553 -0.790030 0.638410 0.343371 -0.939200 0.000000
-0.766553 -0.790030 0.000000 0.343371 -0.939200 0.000000
-0.703332 -0.766916 0.000000 0.343371 -0.939200 0.000000
-0.701361 -0.766196 0.567621 0.343370 -0.939201 -0.000000
-0.766553 -0.790030 0.638410 0.343370 -0.939201 -0.000000
-0.703332 -0.766916 0.000000 0.343370 -0.939201 -0.000000
-0.862260 -0.805841 0.000000 0.162994 -0.986627 0.000000
-0.766553 -0.790030 0.000000 0.162994 -0.986627 0.000000
-0.766553 -0.790030 0.638410 0.162994 -0.986627 0.000000
-0.862260 -0.805841 0.638410 0.162994 -0.986627 0.000000
0.333931 -0.858637 0.002949 0.101610 -0.994824 0.000000
0.333931 -0.858637 0.054290 0.101610 -0.994824 0.000000
0.149228 -0.877502 0.000000 0.101610 -0.994824 0.000000
0.040415 -0.888616 0.026604 0.101610 -0.994824 0.000000
0.040415 -0.888616 0.000000 0.101610 -0.994824 0.000000
0.333931 -0.858637 0.054290 0.101609 -0.994824 0.000003
0.040415 -0.888616 0.000000 0.101609 -0.994824 0.000003
0.149228 -0.877502 0.000000 0.101609 -0.994824 0.000003
0.144675 -0.869563 0.000000 0.015079 0.008647 -0.999849
0.353379 -0.831423 0.003477 0.015079 0.008647 -0.999849
0.333931 -0.858637 0.002949 0.015079 0.008647 -0.999849
0.149228 -0.877502 0.000000 0.015079 0.008647 -0.999849
0.051052 -0.871758 0.000000 -0.000000 0.000000 -1.000000
0.100904 -0.868249 0.000000 -0.000000 0.000000 -1.000000
-0.055564 -0.888740 0.000000 -0.000000 0.000000 -1.000000
0.133067 -0.863558 0.000000 -0.000000 0.000000 -1.000000
0.144675 -0.869563 0.000000 -0.000000 0.000000 -1.000000
0.149228 -0.877502 0.000000 0.000000 0.000000 -1.000000
0.040415 -0.888616 0.000000 0.000000 0.000000 -1.000000
-0.106868 -0.896683 0.000000 0.000000 -0.000000 -1.000000
0.353379 -0.831423 0.059735 -0.103474 -0.009931 0.994583
0.100904 -0.868249 0.029951 -0.103474 -0.009931 0.994583
0.040415 -0.888616 0.026604 -0.103474 -0.009931 0.994583
0.333931 -0.858637 0.054290 -0.103474 -0.009931 0.994583
-0.722474 -0.314818 0.634284 0.995779 0.091789 0.000000
-0.724485 -0.293010 0.638410 0.995779 0.091789 0.000000
-0.722474 -0.314818 0.638410 0.995779 0.091789 0.000000
-0.722474 -0.314818 0.607765 0.995779 0.091789 -0.000000
-1.119749 -0.325611 0.638410 0.000000 0.000000 1.000000
-1.119451 -0.328426 0.638410 0.000000 0.000000 1.000000
-0.721479 -0.325611 0.638410 0.000000 0.000000 1.000000
-1.073009 -0.766483 0.638410 0.000000 0.000000 1.000000
-1.008898 -0.791111 0.638410 0.000000 0.000000 1.000000
-0.944780 -0.803793 0.638410 0.000000 0.000000 1.000000
-0.862260 -0.805841 0.638410 0.000000 0.000000 1.000000
-0.766553 -0.790030 0.638410 0.000000 0.000000 1.000000
-0.701115 -0.766106 0.638410 0.000000 0.000000 1.000000
-0.683547 -0.737131 0.638410 0.000000 0.000000 1.000000
-0.720647 -0.334645 0.638410 0.000000 0.000000 1.000000
-1.119749 -0.325611 0.628046 -0.994425 -0.105446 0.000000
-1.119451 -0.328426 0.638410 -0.994425 -0.105446 0.000000
-1.119749 -0.325611 0.638410 -0.994425 -0.105446 0.000000
-0.684533 -0.726439 0.029371 0.978612 -0.194506 -0.066973
-0.688373 -0.754969 0.028933 0.978612 -0.194506 -0.066973
-0.691338 -0.753052 0.007216 0.978612 -0.194506 -0.066973
-0.684580 -0.725923 0.000000 0.978612 -0.194506 -0.066973
-0.703332 -0.766916 0.000000 0.699705 -0.711180 -0.068094
-0.691338 -0.753052 0.007216 0.699705 -0.711180 -0.068094
-0.688373 -0.754969 0.028933 0.699705 -0.711180 -0.068094
-0.703230 -0.766879 0.029434 0.699705 -0.711180 -0.068094
-0.055564 -0.888740 0.000000 -0.018126 0.113799 -0.993338
-0.192708 -0.888916 0.002482 -0.018126 0.113799 -0.993338
0.051052 -0.871758 0.000000 -0.018126 0.113799 -0.993338
0.040415 -0.888616 0.000000 0.054690 -0.998503 0.000000
0.040415 -0.888616 0.026604 0.054690 -0.998503 0.000000
-0.106868 -0.896683 0.000000 0.054690 -0.998503 0.000000
-0.311344 -0.907883 0.026241 0.054690 -0.998503 0.000000
-0.311344 -0.907883 0.002412 0.054690 -0.998503 0.000000
-0.106868 -0.896683 0.000000 -0.018123 0.117053 -0.992960
-0.311344 -0.907883 0.002412 -0.018123 0.117053 -0.992960
-0.192708 -0.888916 0.002482 -0.018123 0.117053 -0.992960
-0.055564 -0.888740 0.000000 -0.018123 0.117053 -0.992960
-1.137835 -0.155017 0.638410 -0.994427 -0.105429 0.000000
-1.137835 -0.155017 0.000000 -0.994427 -0.105429 0.000000
-1.120893 -0.314818 0.638410 -0.994427 -0.105429 0.000000
-1.137835 -0.155017 0.000000 -0.994427 -0.105428 -0.000000
-1.073009 -0.766483 0.000000 -0.994427 -0.105428 -0.000000
-1.073009 -0.766483 0.638410 -0.994427 -0.105428 -0.000000
-1.073009 -0.766483 0.638410 -0.994427 -0.105427 0.000005
-1.119451 -0.328426 0.638410 -0.994427 -0.105427 0.000005
-1.119749 -0.325611 0.628046 -0.994427 -0.105427 0.000005
-1.120893 -0.314818 0.588312 -0.994427 -0.105429 -0.000000
-1.073009 -0.766483 0.638410 -0.994427 -0.105427 0.000000
-1.119749 -0.325611 0.628046 -0.994427 -0.105427 0.000000
-1.119749 -0.325611 0.244812 -0.994427 -0.105427 0.000000
-1.137835 -0.155017 0.000000 -0.994427 -0.105427 0.000000
-1.120893 -0.314818 0.244812 -0.994427 -0.105427 0.000000
-1.120893 -0.314818 0.588312 -0.994427 -0.105427 0.000000
-1.137835 -0.155017 0.000000 -0.994427 -0.105426 0.000002
-1.073009 -0.766483 0.638410 -0.994427 -0.105426 0.000002
-1.119749 -0.325611 0.244812 -0.994427 -0.105426 0.000002
-1.137835 -0.155017 0.000000 -0.994426 -0.105433 -0.000003
-1.119749 -0.325611 0.244812 -0.994426 -0.105433 -0.000003
-1.120893 -0.314818 0.244812 -0.994426 -0.105433 -0.000003
-0.683683 -0.735661 0.554667 0.984371 -0.176093 -0.002315
-0.688373 -0.754969 0.566383 0.984371 -0.176093 -0.002315
-0.688373 -0.754969 0.028933 0.984371 -0.176093 -0.002315
-0.684533 -0.726439 0.029371 0.984371 -0.176093 -0.002315
-0.690522 -0.753777 0.638410 0.000000 0.000000 1.000000
-0.703230 -0.766879 0.029434 0.639069 -0.769149 -0.000622
-0.688373 -0.754969 0.028933 0.639069 -0.769149 -0.000622
-0.688373 -0.754969 0.566383 0.639069 -0.769149 -0.000622
-0.701361 -0.766196 0.567621 0.639069 -0.769149 -0.000622
-0.192708 -0.888916 0.002482 -0.070216 0.997532 0.000000
-0.192708 -0.888916 0.029266 -0.070216 0.997532 0.000000
0.051052 -0.871758 0.000000 -0.070216 0.997532 0.000000
-0.192708 -0.888916 0.029266 -0.070217 0.997532 0.000000
0.100904 -0.868249 0.029951 -0.070217 0.997532 0.000000
0.100904 -0.868249 0.000000 -0.070217 0.997532 0.000000
-0.192708 -0.888916 0.029266 -0.070220 0.997532 -0.000026
0.100904 -0.868249 0.000000 -0.070220 0.997532 -0.000026
0.051052 -0.871758 0.000000 -0.070220 0.997532 -0.000026
-0.192708 -0.888916 0.002482 -0.000779 0.008590 -0.999963
-0.311344 -0.907883 0.002412 -0.000779 0.008590 -0.999963
-0.652998 -0.897678 0.002766 -0.000779 0.008590 -0.999963
-0.192708 -0.888916 0.029266 0.011451 -0.195143 0.980708
0.040415 -0.888616 0.026604 0.011451 -0.195143 0.980708
0.100904 -0.868249 0.029951 0.011451 -0.195143 0.980708
-0.688373 -0.754969 0.566383 0.952239 -0.305129 0.011762
-0.683683 -0.735661 0.554667 0.952239 -0.305129 0.011762
-0.683547 -0.737131 0.638410 0.952239 -0.305129 0.011762
-0.690522 -0.753777 0.638410 0.952239 -0.305129 0.011762
-0.701361 -0.766196 0.567621 0.707048 -0.706990 0.015766
-0.688373 -0.754969 0.566383 0.707048 -0.706990 0.015766
-0.690522 -0.753777 0.638410 0.707048 -0.706990 0.015766
-0.701115 -0.766106 0.638410 0.707048 -0.706990 0.015766
-0.192708 -0.888916 0.002482 -0.019031 0.999819 0.000000
-0.652998 -0.897678 0.002766 -0.019031 0.999819 0.000000
-0.652998 -0.897678 0.025268 -0.019031 0.999819 0.000000
-0.192708 -0.888916 0.029266 -0.019031 0.999819 0.000000
-0.311344 -0.907883 0.026241 0.011413 -0.226723 0.973893
0.040415 -0.888616 0.026604 0.011413 -0.226723 0.973893
-0.192708 -0.888916 0.029266 0.011413 -0.226723 0.973893
-0.714172 -0.916957 0.002342 0.022522 -0.999746 0.000000
-0.311344 -0.907883 0.002412 0.022522 -0.999746 0.000000
-0.311344 -0.907883 0.026241 0.022522 -0.999746 0.000000
-0.714172 -0.916957 0.024664 0.022522 -0.999746 0.000000
-0.311344 -0.907883 0.002412 -0.000346 0.023069 -0.999734
-0.714172 -0.916957 0.002342 -0.000346 0.023069 -0.999734
-0.652998 -0.897678 0.002766 -0.000346 0.023069 -0.999734
-0.714172 -0.916957 0.002342 0.034834 -0.088668 -0.995452
-0.756723 -0.907382 0.000000 0.034834 -0.088668 -0.995452
-0.753889 -0.906269 0.000000 0.034834 -0.088668 -0.995452
-0.714172 -0.916957 0.002342 0.034836 -0.088659 -0.995453
-0.753889 -0.906269 0.000000 0.034836 -0.088659 -0.995453
-0.652998 -0.897678 0.002766 0.034836 -0.088659 -0.995453
-0.652998 -0.897678 0.002766 0.077275 0.997010 0.000000
-0.792898 -0.886835 0.000610 0.077275 0.997010 0.000000
-0.792898 -0.886835 0.027127 0.077275 0.997010 0.000000
-0.652998 -0.897678 0.025268 0.077275 0.997010 0.000000
-0.192708 -0.888916 0.029266 -0.006369 -0.118529 0.992930
-0.652998 -0.897678 0.025268 -0.006369 -0.118529 0.992930
-0.311344 -0.907883 0.026241 -0.006369 -0.118529 0.992930
-0.714172 -0.916957 0.002342 0.144968 -0.989436 0.000000
-0.714172 -0.916957 0.024664 0.144968 -0.989436 0.000000
-0.780522 -0.926679 0.000000 0.144968 -0.989436 0.000000
-0.714172 -0.916957 0.024664 0.144969 -0.989436 0.000000
-0.822372 -0.932811 0.030695 0.144969 -0.989436 0.000000
-0.822372 -0.932811 0.000000 0.144969 -0.989436 0.000000
-0.714172 -0.916957 0.024664 0.144970 -0.989436 -0.000005
-0.822372 -0.932811 0.000000 0.144970 -0.989436 -0.000005
-0.780522 -0.926679 0.000000 0.144970 -0.989436 -0.000005
-0.714172 -0.916957 0.024664 0.000906 -0.034184 0.999415
-0.311344 -0.907883 0.026241 0.000906 -0.034184 0.999415
-0.652998 -0.897678 0.025268 0.000906 -0.034184 0.999415
-0.759535 -0.906750 0.026687 0.000906 -0.034184 0.999415
-0.790421 -0.889081 0.000000 0.037994 0.300782 -0.952936
-0.792898 -0.886835 0.000610 0.037994 0.300782 -0.952936
-0.652998 -0.897678 0.002766 0.037994 0.300782 -0.952936
-0.701249 -0.900345 0.000000 0.037994 0.300782 -0.952936
-0.792898 -0.886835 0.000610 0.125781 0.992058 0.000000
-0.802492 -0.885618 0.000000 0.125781 0.992058 0.000000
-0.792898 -0.886835 0.027127 0.125781 0.992058 0.000000
-0.802492 -0.885618 0.000000 0.125778 0.992058 0.000000
-0.839400 -0.880939 0.000000 0.125778 0.992058 0.000000
-0.839400 -0.880939 0.031763 0.125778 0.992058 0.000000
-0.802492 -0.885618 0.000000 0.125779 0.992058 0.000001
-0.839400 -0.880939 0.031763 0.125779 0.992058 0.000001
-0.792898 -0.886835 0.027127 0.125779 0.992058 0.000001
-0.652998 -0.897678 0.025268 0.042089 0.048420 0.997940
-0.792898 -0.886835 0.027127 0.042089 0.048420 0.997940
-0.773590 -0.904343 0.030677 0.042089 0.048420 0.997940
-0.759535 -0.906750 0.026687 0.042089 0.048420 0.997940
-0.728740 -0.915691 0.000000 0.099950 -0.471046 -0.876428
-0.714172 -0.916957 0.002342 0.099950 -0.471046 -0.876428
-0.780522 -0.926679 0.000000 0.099950 -0.471046 -0.876428
-0.759535 -0.906750 0.026687 0.223517 0.950995 0.213654
-0.773590 -0.904343 0.030677 0.223517 0.950995 0.213654
-0.714172 -0.916957 0.024664 0.223517 0.950995 0.213654
-0.701249 -0.900345 0.000000 0.079360 -0.705150 -0.704603
-0.652998 -0.897678 0.002766 0.079360 -0.705150 -0.704603
-0.753889 -0.906269 0.000000 0.079360 -0.705150 -0.704603
-0.919952 -0.913855 0.000000 -0.000000 0.000000 -1.000000
-0.917378 -0.909555 0.000000 -0.000000 0.000000 -1.000000
-0.921702 -0.917066 0.000000 -0.000000 0.000000 -1.000000
-0.887343 -0.890791 0.000000 0.000000 0.000000 -1.000000
-0.883988 -0.889016 0.000000 0.000000 0.000000 -1.000000
-0.873395 -0.886146 0.000000 0.000000 0.000000 -1.000000
-0.839400 -0.880939 0.000000 0.000000 0.000000 -1.000000
-0.802492 -0.885618 0.000000 0.000000 0.000000 -1.000000
-0.794142 -0.887516 0.000000 0.000000 0.000000 -1.000000
-0.790421 -0.889081 0.000000 0.000000 0.000000 -1.000000
-0.701249 -0.900345 0.000000 0.000000 0.000000 -1.000000
-0.753889 -0.906269 0.000000 0.000000 0.000000 -1.000000
-0.756723 -0.907382 0.000000 0.000000 0.000000 -1.000000
-0.735618 -0.912404 0.000000 0.000000 0.000000 -1.000000
-0.728740 -0.915691 0.000000 0.000000 0.000000 -1.000000
-0.780522 -0.926679 0.000000 0.000000 0.000000 -1.000000
-0.822372 -0.932811 0.000000 0.000000 0.000000 -1.000000
-0.869885 -0.931906 0.000000 0.000000 0.000000 -1.000000
-0.890674 -0.927461 0.000000 0.000000 0.000000 -1.000000
-0.793522 -0.887867 0.000000 -0.000000 -0.000000 -1.000000
-0.793522 -0.887867 0.000000 0.166447 0.425232 -0.889648
-0.792898 -0.886835 0.000610 0.166447 0.425232 -0.889648
-0.790421 -0.889081 0.000000 0.166447 0.425232 -0.889648
-0.802492 -0.885618 0.000000 0.120677 0.531045 -0.838706
-0.792898 -0.886835 0.000610 0.120677 0.531045 -0.838706
-0.794142 -0.887516 0.000000 0.120677 0.531045 -0.838706
-0.714172 -0.916957 0.024664 0.157021 -0.268471 0.950404
-0.773590 -0.904343 0.030677 0.157021 -0.268471 0.950404
-0.806261 -0.908953 0.042140 0.157021 -0.268471 0.950404
-0.822372 -0.932811 0.030695 0.157021 -0.268471 0.950404
-0.735618 -0.912404 0.000000 0.178798 0.374181 -0.909956
-0.714172 -0.916957 0.002342 0.178798 0.374181 -0.909956
-0.728740 -0.915691 0.000000 0.178798 0.374181 -0.909956
-0.756723 -0.907382 0.000000 0.225666 0.948379 -0.222829
-0.714172 -0.916957 0.002342 0.225666 0.948379 -0.222829
-0.735618 -0.912404 0.000000 0.225666 0.948379 -0.222829
-0.921702 -0.917066 0.000000 -0.306641 0.167067 -0.937049
-0.931424 -0.918748 0.002882 -0.306641 0.167067 -0.937049
-0.919952 -0.913855 0.000000 -0.306641 0.167067 -0.937049
-0.919952 -0.913855 0.000000 -0.313943 0.187951 -0.930653
-0.931424 -0.918748 0.002882 -0.313943 0.187951 -0.930653
-0.918630 -0.909798 0.000373 -0.313943 0.187951 -0.930653
-0.917378 -0.909555 0.000000 -0.313943 0.187951 -0.930653
-0.917378 -0.909555 0.000000 -0.334943 0.536128 -0.774842
-0.918630 -0.909798 0.000373 -0.334943 0.536128 -0.774842
-0.887343 -0.890791 0.000000 -0.334943 0.536128 -0.774842
-0.918630 -0.909798 0.000373 -0.049906 0.095172 -0.994209
-0.960244 -0.901007 0.003304 -0.049906 0.095172 -0.994209
-0.884340 -0.887823 0.000756 -0.049906 0.095172 -0.994209
-0.918630 -0.909798 0.000373 -0.334916 0.536081 -0.774886
-0.884340 -0.887823 0.000756 -0.334916 0.536081 -0.774886
-0.887343 -0.890791 0.000000 -0.334916 0.536081 -0.774886
-0.887343 -0.890791 0.000000 -0.246341 0.465615 -0.850011
-0.884340 -0.887823 0.000756 -0.246341 0.465615 -0.850011
-0.883988 -0.889016 0.000000 -0.246341 0.465615 -0.850011
-0.883988 -0.889016 0.000000 -0.135786 0.501151 -0.854640
-0.884340 -0.887823 0.000756 -0.135786 0.501151 -0.854640
-0.873395 -0.886146 0.000000 -0.135786 0.501151 -0.854640
-0.839400 -0.880939 0.000000 -0.151407 0.988471 0.000000
-0.873395 -0.886146 0.000000 -0.151407 0.988471 0.000000
-0.839400 -0.880939 0.031763 -0.151407 0.988471 0.000000
-0.873395 -0.886146 0.000000 -0.151416 0.988470 0.000000
-0.884340 -0.887823 0.000756 -0.151416 0.988470 0.000000
-0.884340 -0.887823 0.029846 -0.151416 0.988470 0.000000
-0.873395 -0.886146 0.000000 -0.151410 0.988471 0.000003
-0.884340 -0.887823 0.029846 -0.151410 0.988471 0.000003
-0.839400 -0.880939 0.031763 -0.151410 0.988471 0.000003
-0.794142 -0.887516 0.000000 0.222621 0.392835 -0.892256
-0.792898 -0.886835 0.000610 0.222621 0.392835 -0.892256
-0.793522 -0.887867 0.000000 0.222621 0.392835 -0.892256
-0.822372 -0.932811 0.000000 -0.019044 -0.999819 0.000000
-0.822372 -0.932811 0.030695 -0.019044 -0.999819 0.000000
-0.869885 -0.931906 0.031597 -0.019044 -0.999819 0.000000
-0.869885 -0.931906 0.000000 -0.019044 -0.999819 0.000000
-0.869885 -0.931906 0.031597 -0.209079 -0.977899 0.000000
-0.931424 -0.918748 0.028761 -0.209079 -0.977899 0.000000
-0.869885 -0.931906 0.000000 -0.209079 -0.977899 0.000000
-0.931424 -0.918748 0.028761 -0.209081 -0.977898 0.000000
-0.931424 -0.918748 0.002882 -0.209081 -0.977898 0.000000
-0.890674 -0.927461 0.000000 -0.209081 -0.977898 0.000000
-0.931424 -0.918748 0.028761 -0.209075 -0.977900 0.000008
-0.890674 -0.927461 0.000000 -0.209075 -0.977900 0.000008
-0.869885 -0.931906 0.000000 -0.209075 -0.977900 0.000008
-0.890674 -0.927461 0.000000 -0.166473 -0.496931 -0.851673
-0.931424 -0.918748 0.002882 -0.166473 -0.496931 -0.851673
-0.921702 -0.917066 0.000000 -0.166473 -0.496931 -0.851673
-0.792898 -0.886835 0.027127 0.187065 0.528094 0.828326
-0.839400 -0.880939 0.031763 0.187065 0.528094 0.828326
-0.831955 -0.908217 0.049580 0.187065 0.528094 0.828326
-0.806261 -0.908953 0.042140 0.187065 0.528094 0.828326
-0.773590 -0.904343 0.030677 0.241049 0.441111 0.864475
-0.792898 -0.886835 0.027127 0.241049 0.441111 0.864475
-0.806261 -0.908953 0.042140 0.241049 0.441111 0.864475
-0.918630 -0.909798 0.000373 -0.098145 -0.135976 -0.985839
-0.931424 -0.918748 0.002882 -0.098145 -0.135976 -0.985839
-0.960244 -0.901007 0.003304 -0.098145 -0.135976 -0.985839
-0.931424 -0.918748 0.002882 0.036499 0.082996 -0.995881
-1.027117 -0.911243 0.000000 0.036499 0.082996 -0.995881
-1.044443 -0.903623 0.000000 0.036499 0.082996 -0.995881
-0.960244 -0.901007 0.003304 0.036499 0.082996 -0.995881
-0.869885 -0.931906 0.031597 -0.005786 -0.598723 0.800935
-0.822372 -0.932811 0.030695 -0.005786 -0.598723 0.800935
-0.831955 -0.908217 0.049580 -0.005786 -0.598723 0.800935
-0.854905 -0.907639 0.049277 -0.005786 -0.598723 0.800935
-0.806261 -0.908953 0.042140 0.220050 -0.538708 0.813248
-0.831955 -0.908217 0.049580 0.220050 -0.538708 0.813248
-0.822372 -0.932811 0.030695 0.220050 -0.538708 0.813248
-0.884340 -0.887823 0.000756 -0.171139 0.985247 0.000000
-0.960244 -0.901007 0.003304 -0.171139 0.985247 0.000000
-0.960244 -0.901007 0.022628 -0.171139 0.985247 0.000000
-0.884340 -0.887823 0.029846 -0.171139 0.985247 0.000000
-0.884340 -0.887823 0.029846 -0.152294 0.567346 0.809274
-0.877948 -0.909498 0.044530 -0.152294 0.567346 0.809274
-0.854905 -0.907639 0.049277 -0.152294 0.567346 0.809274
-0.839400 -0.880939 0.031763 -0.152294 0.567346 0.809274
-0.869885 -0.931906 0.031597 -0.129808 -0.530273 0.837830
-0.854905 -0.907639 0.049277 -0.129808 -0.530273 0.837830
-0.877948 -0.909498 0.044530 -0.129808 -0.530273 0.837830
-0.931424 -0.918748 0.028761 -0.204046 -0.367353 0.907423
-0.869885 -0.931906 0.031597 -0.204046 -0.367353 0.907423
-0.877948 -0.909498 0.044530 -0.204046 -0.367353 0.907423
-0.903630 -0.906893 0.034135 -0.204046 -0.367353 0.907423
-0.931424 -0.918748 0.002882 -0.078194 -0.996938 -0.000000
-0.931424 -0.918748 0.028761 -0.078194 -0.996938 -0.000000
-1.089297 -0.906366 -0.000000 -0.078194 -0.996938 -0.000000
-1.027117 -0.911243 0.000000 -0.078194 -0.996938 -0.000000
-0.854905 -0.907639 0.049277 0.002743 0.547360 0.836892
-0.831955 -0.908217 0.049580 0.002743 0.547360 0.836892
-0.839400 -0.880939 0.031763 0.002743 0.547360 0.836892
-1.088860 -0.905003 0.000000 -0.031055 0.999518 0.000002
-0.960244 -0.901007 0.022628 -0.031055 0.999518 0.000002
-0.960244 -0.901007 0.003304 -0.031055 0.999518 0.000002
-1.044443 -0.903623 0.000000 -0.031055 0.999518 0.000002
-0.884340 -0.887823 0.029846 -0.151279 0.351307 0.923958
-0.960244 -0.901007 0.022628 -0.151279 0.351307 0.923958
-0.918630 -0.909798 0.032587 -0.151279 0.351307 0.923958
-0.903630 -0.906893 0.034135 -0.151279 0.351307 0.923958
-0.903630 -0.906893 0.034135 -0.287579 0.477627 0.830163
-0.877948 -0.909498 0.044530 -0.287579 0.477627 0.830163
-0.884340 -0.887823 0.029846 -0.287579 0.477627 0.830163
-0.903630 -0.906893 0.034135 -0.026354 -0.360849 0.932252
-0.918630 -0.909798 0.032587 -0.026354 -0.360849 0.932252
-0.931424 -0.918748 0.028761 -0.026354 -0.360849 0.932252
-1.088860 -0.905003 0.000000 0.000000 0.000000 -1.000000
-1.044443 -0.903623 0.000000 0.000000 0.000000 -1.000000
-1.027117 -0.911243 0.000000 0.000000 0.000000 -1.000000
-1.089297 -0.906366 -0.000000 0.000000 0.000000 -1.000000
-0.918630 -0.909798 0.032587 -0.244931 -0.063465 0.967461
-0.960244 -0.901007 0.022628 -0.244931 -0.063465 0.967461
-0.931424 -0.918748 0.028761 -0.244931 -0.063465 0.967461
-0.960244 -0.901007 0.022628 -0.174690 0.056018 0.983029
-1.088860 -0.905003 0.000000 -0.174690 0.056018 0.983029
-1.089297 -0.906366 -0.000000 -0.174690 0.056018 0.983029
-0.960244 -0.901007 0.022628 -0.174690 0.056024 0.983028
-1.089297 -0.906366 -0.000000 -0.174690 0.056024 0.983028
-0.931424 -0.918748 0.028761 -0.174690 0.056024 0.983028
-0.722474 -0.314818 0.244812 0.000000 -1.000000 0.000000
-0.722474 -0.314818 0.607765 0.000000 -1.000000 0.000000
-1.120893 -0.314818 0.244812 0.000000 -1.000000 0.000000
-0.722474 -0.314818 0.634284 0.000000 -1.000000 0.000000
-0.722474 -0.314818 0.638410 0.000000 -1.000000 0.000000
-1.120893 -0.314818 0.638410 0.000000 -1.000000 0.000000
-1.120893 -0.314818 0.638410 0.000000 1.000000 0.000000
-1.120893 -0.314818 0.588312 0.000000 1.000000 0.000000
-1.120893 -0.314818 0.244812 0.000000 1.000000 0.000000
-1.120893 -0.314818 0.244812 0.000000 0.000000 1.000000
-1.119749 -0.325611 0.244812 0.000000 0.000000 1.000000
-0.721479 -0.325611 0.244812 0.000000 0.000000 1.000000
-0.722474 -0.314818 0.244812 0.000000 0.000000 1.000000
-1.119749 -0.325611 0.244812 0.000000 1.000000 0.000000
-1.119749 -0.325611 0.628046 0.000000 1.000000 0.000000
-0.721479 -0.325611 0.244812 0.000000 1.000000 0.000000
-1.119749 -0.325611 0.638410 0.000000 1.000000 0.000000
-0.721479 -0.325611 0.638410 0.000000 1.000000 0.000000
-0.721479 -0.325611 0.638410 0.000000 0.000000 0.000000
-0.721479 -0.325611 0.592600 0.000000 1.000000 -0.000000
3 0 1 2
3 3 4 5
3 6 7 2
3 1 6 2
4 8 9 10 11
3 12 1 13
3 1 0 14
3 1 14 13
4 15 16 17 18
4 19 15 18 20
3 21 22 23
3 22 7 6
3 6 24 23
3 22 6 23
3 25 26 27
4 28 29 30 31
4 25 27 32 33
4 34 35 36 37
3 13 38 12
3 39 40 41
3 42 43 44
3 42 44 45
4 13 14 46 47
4 48 49 50 51
4 52 53 54 55
3 56 21 23
3 57 58 59
3 60 61 62
3 57 63 64
3 61 65 62
4 66 67 68 69
4 70 71 72 73
4 37 74 75 34
4 47 76 38 13
4 77 78 79 80
3 47 46 81
4 82 83 84 85
4 86 66 69 87
3 56 88 21
4 57 59 89 63
3 90 91 92
3 91 93 94
3 91 94 92
4 95 96 97 98
4 99 100 101 102
4 74 103 104 75
4 81 105 76 47
4 106 107 108 109
4 81 46 110 111
4 112 113 114 115
3 116 117 118
3 56 119 88
4 120 121 122 123
3 124 125 126
4 127 128 129 130
4 131 132 104 133
3 104 103 133
4 111 134 105 81
4 135 136 137 138
4 111 110 139 140
4 141 142 143 144
3 145 146 147
4 148 88 119 149
4 150 151 152 153
4 154 155 156 157
4 158 159 160 161
4 162 163 132 131
4 140 164 134 111
4 165 166 167 168
4 140 139 169 170
4 171 172 173 174
3 175 148 149
3 148 175 176
4 177 178 179 180
3 181 182 183
3 184 185 186
4 187 188 189 190
4 191 163 162 192
4 170 193 164 140
4 194 195 196 197
3 170 169 198
3 169 199 200
3 169 200 198
4 201 202 203 204
3 205 176 175
4 176 205 206 207
4 208 209 210 211
4 212 213 214 215
3 216 217 218
4 219 220 221 222
4 192 223 224 191
3 198 193 170
4 225 226 200 199
4 227 228 229 230
4 206 231 232 207
4 233 234 235 236
4 237 238 239 240
4 241 224 223 242
3 243 244 245
3 193 198 200
3 244 246 245
4 247 248 226 225
4 249 250 251 252
4 253 254 255 256
4 257 258 259 260
4 261 262 263 264
4 265 241 242 266
3 267 268 269
3 268 270 248
3 248 247 271
3 271 272 273
3 268 273 269
3 268 248 271
3 268 271 273
4 274 275 276 277
4 278 279 280 281
3 282 283 284
3 285 286 287
3 286 288 289
3 290 291 292
4 293 294 295 296
3 266 297 265
3 297 298 299
3 297 299 265
3 300 301 302
3 303 304 305
3 306 307 308
3 309 310 311
3 312 313 314
3 315 316 317
3 318 319 320
3 321 322 323
3 324 312 314
3 325 326 327
3 318 328 329
3 318 320 328
4 330 331 332 333
4 334 335 336 337
4 338 339 340 341
3 342 343 344
3 345 346 347
3 348 349 350
3 351 352 353
3 354 355 356
4 357 358 359 360
3 361 362 363
3 362 364 365
3 366 367 368
4 369 370 371 372
3 373 374 375
3 374 376 377
3 377 378 379
3 379 380 375
3 374 377 375
3 377 379 375
4 381 382 383 384
3 385 386 387
3 386 385 388
3 389 390 391
3 390 392 393
3 393 394 395
3 395 396 397
3 397 398 399
3 390 399 391
3 390 393 395
3 395 397 399
3 390 395 399
3 400 401 402
4 403 404 405 406
4 407 408 409 410
3 411 412 413
3 414 415 416
3 415 417 418
3 415 418 416
4 419 420 421 422
3 423 424 425
3 426 427 428
3 429 430 431
3 424 432 425
3 433 434 435
3 436 437 438
3 439 440 441
3 442 443 444
4 445 446 447 448
3 397 449 398
4 450 451 452 453
3 454 455 456
3 457 458 459
3 460 461 462
3 463 464 465
3 466 467 468
4 469 470 471 472
4 473 474 475 476
4 477 478 479 480
3 481 482 483
4 484 485 486 487
3 488 489 490
3 491 492 493
3 494 495 496
4 497 498 499 500
3 501 502 503
3 504 505 506
3 507 508 509
3 510 511 512
4 513 514 515 516
4 517 518 519 520
3 521 522 523
3 524 525 526
3 527 528 529
4 530 531 532 533
3 534 535 536
3 537 538 539
3 540 541 542
3 543 544 545
3 544 546 547
3 547 548 549
3 549 550 551
3 552 553 554
3 555 556 557
3 557 558 559
3 559 560 561
3 544 561 545
3 544 547 549
3 549 551 562
3 562 552 554
3 555 557 559
3 544 559 561
3 544 549 562
3 562 554 555
3 544 555 559
3 544 562 555
3 563 564 565
3 566 567 568
4 569 570 571 572
3 573 574 575
3 576 577 578
3 579 580 581
4 582 583 584 585
3 586 587 588
3 589 590 591
3 592 593 594
3 595 596 597
3 598 599 600
3 601 602 603
3 604 605 606
3 607 608 609
3 610 611 612
4 613 614 615 616
3 617 618 619
3 620 621 622
3 623 624 625
3 626 627 628
4 629 630 631 632
3 633 634 635
3 636 637 638
3 639 640 641
3 639 641 642
4 643 644 645 646
3 647 648 649
4 650 651 652 653
4 654 655 656 657
3 658 659 660
4 661 662 663 664
4 665 666 667 668
3 669 670 671
4 672 673 674 675
4 676 677 678 679
3 680 681 682
3 683 684 685
4 686 687 688 689
3 690 691 692
3 693 694 695
3 696 697 698
3 699 700 701
3 702 703 704
3 705 706 707
3 700 702 701
3 702 704 701
4 708 709 710 711
3 712 713 714
3 713 715 716
3 717 311 310
3 713 718 714
3 713 716 718
